<group> group_label=1 key=55 pitch_keycenter=57
<region> volume=3 sample=Slt Drum1 Soft.$EXT region_label=Soft hivel=60
<region> volume=2 sample=Slt Drum1 Medium.$EXT region_label=Medium lovel=61 hivel=87
<region> volume=0 sample=Slt Drum1 Loud.$EXT region_label=Loud lovel=88

<group> group_label=2 key=57 pitch_keycenter=58
<region> volume=3 sample=Slt Drum2 Soft.$EXT region_label=Soft hivel=60
<region> volume=2 sample=Slt Drum2 Medium.$EXT region_label=Medium lovel=61 hivel=87
<region> volume=0 sample=Slt Drum2 Loud.$EXT region_label=Loud lovel=88

<group> group_label=3 key=59
<region> volume=3 sample=Slt Drum3 Soft.$EXT region_label=Soft hivel=60
<region> volume=2 sample=Slt Drum3 Medium.$EXT region_label=Medium lovel=61 hivel=87
<region> volume=0 sample=Slt Drum3 Loud.$EXT region_label=Loud lovel=88

<group> group_label=4 key=60
<region> volume=3 sample=Slt Drum4 Soft.$EXT region_label=Soft hivel=60
<region> volume=2 sample=Slt Drum4 Medium.$EXT region_label=Medium lovel=61 hivel=87
<region> volume=0 sample=Slt Drum4 Loud.$EXT region_label=Loud lovel=88

<group> group_label=5 key=62 pitch_keycenter=61
<region> volume=3 sample=Slt Drum5 Soft.$EXT region_label=Soft hivel=60
<region> volume=2 sample=Slt Drum5 Medium.$EXT region_label=Medium lovel=61 hivel=87
<region> volume=0 sample=Slt Drum5 Loud.$EXT region_label=Loud lovel=88

<group> group_label=6 key=64 pitch_keycenter=62
<region> volume=3 sample=Slt Drum6 Soft.$EXT region_label=Soft hivel=60
<region> volume=2 sample=Slt Drum6 Medium.$EXT region_label=Medium lovel=61 hivel=87
<region> volume=0 sample=Slt Drum6 Loud.$EXT region_label=Loud lovel=88

<group> group_label=7 key=65 pitch_keycenter=63
<region> volume=3 sample=Slt Drum7 Soft.$EXT region_label=Soft hivel=60
<region> volume=2 sample=Slt Drum7 Medium.$EXT region_label=Medium lovel=61 hivel=87
<region> volume=0 sample=Slt Drum7 Loud.$EXT region_label=Loud lovel=88